<?xml version="1.0" standalone="no"?>
<!DOCTYPE svg PUBLIC "-//W3C//DTD SVG 1.1//EN" "http://www.w3.org/Graphics/SVG/1.1/DTD/svg11.dtd" >
<svg xmlns="http://www.w3.org/2000/svg">
<metadata></metadata>
<defs>
<font id="lg_smartregular_italic" horiz-adv-x="1064" >
<font-face units-per-em="2048" ascent="1466" descent="-582" />
<missing-glyph horiz-adv-x="407" />
<glyph unicode="&#xfb01;" horiz-adv-x="976" d="M-276 -410l36 117q41 -10 78 -10q90 0 143.5 53t77.5 174l174 826h-129l25 116h127l20 95q20 98 61.5 164.5t99 107.5t131 58.5t157.5 17.5q90 0 158.5 -12.5t120.5 -30.5l-37 -174h-150l23 90q-25 8 -54.5 13t-72.5 5q-131 0 -201 -67.5t-94 -188.5l-17 -78h517 l-185 -866h-145l160 750h-369l-178 -836q-20 -98 -56 -162.5t-84.5 -103.5t-107.5 -54.5t-129 -15.5q-27 0 -52.5 4t-47.5 8z" />
<glyph unicode="&#xfb02;" horiz-adv-x="1003" d="M-276 -410l36 117q41 -10 78 -10q90 0 143.5 53t77.5 174l174 826h-129l25 116h129l18 95q20 98 62.5 164.5t102 107.5t133 58.5t159.5 17.5q88 0 156.5 -12.5t128.5 -30.5l-221 -1041q-4 -23 -7.5 -40t-3.5 -29q0 -33 16.5 -42.5t51.5 -9.5l-23 -110q-8 -2 -16 -2 q-8 -2 -16 -2h-19q-145 0 -145 135q0 20 4 45t10 51l205 959q-55 16 -141 16q-129 0 -198 -63.5t-95 -184.5l-17 -82h267l-23 -116h-268l-178 -836q-20 -98 -56 -162.5t-84.5 -103.5t-107.5 -54.5t-129 -15.5q-27 0 -52.5 4t-47.5 8z" />
<glyph horiz-adv-x="0" />
<glyph unicode="&#xd;" horiz-adv-x="403" />
<glyph horiz-adv-x="0" />
<glyph horiz-adv-x="0" />
<glyph unicode=" "  horiz-adv-x="407" />
<glyph unicode="&#x09;" horiz-adv-x="407" />
<glyph unicode="&#xa0;" horiz-adv-x="407" />
<glyph unicode="!" horiz-adv-x="428" d="M31 0l35 162h161l-34 -162h-162zM109 301l190 944h158l-219 -944h-129z" />
<glyph unicode="&#x22;" horiz-adv-x="729" d="M229 877l66 421h149l-112 -421h-103zM528 877l66 421h149l-112 -421h-103z" />
<glyph unicode="#" horiz-adv-x="1015" d="M98 279l25 110h143l49 227h-145l25 111h143l29 131h120l-28 -131h194l29 131h119l-29 -131h146l-23 -111h-145l-50 -227h146l-23 -110h-147l-27 -132h-121l29 132h-195l-26 -132h-121l27 132h-144zM387 389h193l49 227h-193z" />
<glyph unicode="$" horiz-adv-x="980" d="M29 55l61 117q53 -25 132 -46.5t169 -21.5q70 0 130.5 16.5t103.5 48.5t67.5 76t24.5 99q0 57 -30 94t-64 60q-66 39 -135.5 68.5t-145.5 70.5q-72 39 -115 101.5t-43 140.5q0 102 38 174.5t103.5 120t154.5 70t192 22.5q100 0 183 -17.5t149 -48.5l-60 -117 q-49 23 -120.5 41.5t-166.5 18.5q-141 0 -229 -59.5t-88 -172.5q0 -59 28.5 -95t69.5 -58q59 -35 134 -67t147 -73q68 -39 108.5 -99t40.5 -144q0 -102 -38.5 -177t-104.5 -123t-156 -71.5t-190 -23.5q-104 0 -191.5 21.5t-158.5 53.5zM305 -168l340 1593h105l-340 -1593 h-105z" />
<glyph unicode="%" horiz-adv-x="1333" d="M41 -55l1149 1355h151l-1148 -1355h-152zM129 825q0 70 15.5 147t52 142.5t96 108.5t147.5 43q92 0 140.5 -60.5t48.5 -165.5q0 -70 -16.5 -147.5t-52.5 -142t-95.5 -107.5t-145.5 -43q-92 0 -141 60.5t-49 164.5zM240 831q0 -53 19.5 -96t74.5 -43q45 0 78.5 30t57.5 79 t36 110.5t12 124.5q0 51 -19.5 94.5t-72.5 43.5q-47 0 -82 -31t-58.5 -79t-34.5 -109.5t-11 -123.5zM756 205q0 68 16 145.5t53 143t96.5 108.5t147.5 43q92 0 140 -61.5t48 -165.5q0 -70 -16 -147.5t-53 -142.5t-95.5 -106.5t-144.5 -41.5q-92 0 -142 60t-50 165zM868 207 q0 -51 20 -94t75 -43q45 0 78.5 29.5t57 78.5t35 110.5t11.5 125.5q0 51 -18.5 95t-71.5 44q-47 0 -82 -30.5t-58.5 -80t-35 -111t-11.5 -124.5z" />
<glyph unicode="&#x26;" horiz-adv-x="1120" d="M20 236q0 162 87.5 262t261.5 182q-29 53 -48.5 110.5t-19.5 116.5q0 80 27.5 145.5t79 113.5t124 74t162.5 26q119 0 193 -62.5t74 -161.5q0 -82 -30 -141t-83 -105t-127 -84t-162 -77l197 -299q47 55 91 117.5t83 124.5l117 -52q-55 -84 -109.5 -158.5t-112.5 -138.5 l150 -229h-166l-86 131q-86 -72 -182.5 -111.5t-216.5 -39.5q-63 0 -118.5 15t-96.5 47t-65 80t-24 114zM174 268q0 -86 48 -125t134 -39q82 0 157 36t142 96l-223 342q-129 -61 -193.5 -135t-64.5 -175zM444 915q0 -47 13.5 -90t40.5 -90q70 31 129 57.5t100 59.5t64.5 73 t23.5 95q0 59 -37 93t-102 34q-111 0 -171.5 -67t-60.5 -165z" />
<glyph unicode="'" horiz-adv-x="417" d="M225 877l66 421h149l-112 -421h-103z" />
<glyph unicode="(" horiz-adv-x="624" d="M66 231q0 348 147 626t424 511l78 -90q-115 -88 -209 -202.5t-160.5 -248t-102.5 -283t-36 -308.5q0 -78 11 -148t32.5 -135.5t51.5 -128t69 -127.5l-103 -74q-45 66 -83 134.5t-64.5 142t-40.5 155.5t-14 176z" />
<glyph unicode=")" horiz-adv-x="622" d="M-92 -287q113 88 206 204t160.5 250t104.5 285.5t37 311.5q0 154 -42 279.5t-122 252.5l100 72q92 -131 148.5 -275.5t56.5 -332.5q0 -176 -38 -331t-111.5 -295t-180 -266t-243.5 -245z" />
<glyph unicode="*" horiz-adv-x="829" d="M180 969l72 141l217 -98l37 266h149l-77 -270l262 104l14 -143l-268 -66l131 -213l-137 -82l-88 228l-187 -228l-110 88l219 211z" />
<glyph unicode="+" d="M147 440l27 125h303l66 307h131l-66 -307h305l-26 -125h-305l-66 -307h-131l66 307h-304z" />
<glyph unicode="," horiz-adv-x="370" d="M-121 -215q66 92 106 178t62 197h141q-31 -141 -87 -240.5t-136 -193.5z" />
<glyph unicode="-" horiz-adv-x="690" d="M92 377l29 129h454l-28 -129h-455z" />
<glyph unicode="." horiz-adv-x="370" d="M-6 0l33 162h166l-35 -162h-164z" />
<glyph unicode="/" horiz-adv-x="677" d="M-94 -76l766 1368h147l-768 -1368h-145z" />
<glyph unicode="0" d="M102 385q0 88 12.5 187.5t40 197.5t71.5 187.5t106.5 157t146.5 108.5t191 41q164 0 250 -108.5t86 -297.5q0 -88 -12.5 -187.5t-40 -197.5t-71.5 -187t-106.5 -157t-148 -108.5t-191.5 -40.5q-164 0 -249 107.5t-85 297.5zM242 391q0 -51 9 -103t31.5 -95t63.5 -70 t107 -27q74 0 134 35t105 93.5t78 135t53.5 160.5t30.5 169t10 161q0 51 -9 104.5t-32.5 95.5t-64.5 68.5t-107 26.5q-74 0 -133 -35t-105 -93.5t-78 -135t-53.5 -160.5t-30.5 -169t-9 -161z" />
<glyph unicode="1" d="M309 1063l404 182h106l-264 -1245h-149l233 1094l-289 -129z" />
<glyph unicode="2" d="M51 0l19 92l448 400q94 88 156.5 152.5t98.5 115.5t50.5 95t14.5 93q0 102 -61.5 149.5t-160.5 47.5q-94 0 -172.5 -29t-138.5 -61l-35 108q82 43 176.5 73t210.5 30q154 0 247 -74t93 -209q0 -78 -25.5 -144.5t-72.5 -133t-117.5 -135t-158.5 -150.5l-332 -297h563 l-27 -123h-776z" />
<glyph unicode="3" d="M14 121l92 92q51 -45 119 -79t181 -34q76 0 140 20.5t110 58.5t73 90.5t27 115.5q0 100 -72 152.5t-209 52.5q-23 0 -39 -1t-30 -3l24 125h59q72 0 135.5 17t109.5 50t73 82t27 115q0 86 -59.5 127t-158.5 41q-92 0 -170.5 -26.5t-128.5 -59.5l-51 102q55 37 155.5 72 t225.5 35q154 0 250 -70t96 -195q0 -72 -20.5 -128t-56 -98t-83 -71t-102.5 -45q78 -25 130 -86t52 -163q0 -100 -36.5 -180t-105.5 -135.5t-165 -85t-215 -29.5q-139 0 -234.5 43t-142.5 98z" />
<glyph unicode="4" d="M31 281l20 92l674 872h244l-181 -848h154l-24 -116h-156l-60 -281h-145l59 281h-585zM225 397h416l154 727h-15z" />
<glyph unicode="5" d="M53 106l97 93q45 -41 108.5 -69t155.5 -28q160 0 252 83t92 233q0 61 -24.5 106t-67.5 75t-101.5 43t-126.5 13h-194l127 590h639l-25 -121h-491l-76 -350h59q98 0 178 -22.5t137.5 -65.5t89 -104.5t31.5 -137.5q0 -223 -134 -343.5t-378 -120.5q-123 0 -212 36.5 t-136 89.5z" />
<glyph unicode="6" d="M117 362q0 100 15 206t50 206t89.5 189.5t133 156t183 105t237.5 38.5q76 0 131.5 -12t98.5 -28l-60 -115q-35 16 -85 25.5t-101 9.5q-98 0 -178 -33t-142.5 -93.5t-107.5 -142.5t-72 -180q61 39 138 65.5t182 26.5q150 0 229.5 -80.5t79.5 -214.5q0 -117 -36 -212 t-101.5 -162.5t-157.5 -103.5t-203 -36q-154 0 -238.5 99.5t-84.5 285.5zM268 373q0 -55 9.5 -104.5t33 -88.5t61.5 -61.5t95 -22.5q66 0 123 26.5t102 75t71 117t26 152.5q0 100 -54.5 148t-152.5 48q-86 0 -167 -34.5t-134 -73.5q-12 -88 -13 -182z" />
<glyph unicode="7" d="M213 1124l27 121h839l-18 -90l-684 -1155h-162l670 1124h-672z" />
<glyph unicode="8" d="M59 270q0 78 23.5 138.5t63.5 106.5t93.5 78t112.5 52q-61 35 -97 91.5t-36 137.5q0 180 126 286t347 106q156 0 241 -73t85 -196q0 -133 -66.5 -222t-181.5 -130q72 -35 114 -94t42 -152q0 -98 -35 -176t-101.5 -132t-160.5 -82.5t-211 -28.5q-168 0 -263.5 78.5 t-95.5 211.5zM219 289q0 -92 58.5 -141.5t166.5 -49.5q143 0 233.5 80t90.5 213q0 92 -58.5 139.5t-164.5 47.5q-145 0 -235.5 -79t-90.5 -210zM373 877q0 -84 51 -130.5t149 -46.5q127 0 207 72t80 195q1 180 -192 180q-131 0 -213 -74t-82 -196z" />
<glyph unicode="9" d="M53 20l60 115q35 -16 85 -25.5t101 -9.5q98 0 178 33t142.5 93.5t107.5 142.5t72 180q-61 -39 -138 -65.5t-182 -26.5q-150 0 -229.5 80.5t-79.5 214.5q0 117 36 212t101.5 162.5t157.5 103.5t203 36q154 0 238.5 -99.5t84.5 -285.5q0 -100 -15 -206t-50 -206 t-89.5 -189.5t-133 -156t-183 -105t-237.5 -38.5q-76 0 -131.5 12t-98.5 28zM319 776q0 -100 54.5 -148t152.5 -48q86 0 167 34.5t134 73.5q12 88 13 182q0 55 -9.5 104.5t-33 88.5t-61.5 61.5t-95 22.5q-66 0 -123 -26.5t-102 -75t-71 -117t-26 -152.5z" />
<glyph unicode=":" horiz-adv-x="370" d="M-4 0l33 162h166l-35 -162h-164zM141 702l33 162h166l-35 -162h-164z" />
<glyph unicode=";" horiz-adv-x="372" d="M-117 -215q66 92 106 178t62 197h141q-31 -141 -87 -240.5t-136 -193.5zM146 702l33 162h166l-35 -162h-164z" />
<glyph unicode="&#x3c;" d="M193 502l614 524l84 -92l-518 -445l317 -430l-106 -82z" />
<glyph unicode="=" d="M121 322l26 120h744l-25 -120h-745zM174 563l25 123h745l-26 -123h-744z" />
<glyph unicode="&#x3e;" d="M143 70l518 445l-317 430l106 82l391 -525l-614 -524z" />
<glyph unicode="?" horiz-adv-x="784" d="M141 0l35 162h162l-35 -162h-162zM178 1178q68 35 150 61.5t174 26.5q137 0 223 -60.5t86 -177.5q0 -72 -28.5 -128t-72.5 -105.5t-97.5 -95.5t-102.5 -95t-88 -104.5t-53 -124.5l-15 -74h-139l18 88q16 78 54.5 140.5t83.5 113.5t94 95t90 85t66.5 83t25.5 91 q0 72 -51 109t-137 37q-74 0 -138.5 -25.5t-117.5 -54.5z" />
<glyph unicode="@" horiz-adv-x="1849" d="M25 270q0 242 71.5 428.5t200.5 312.5t310 190.5t403 64.5q172 0 308 -38t231.5 -121t146.5 -213t51 -314q0 -121 -28.5 -228.5t-87 -187.5t-147.5 -127t-210 -47q-82 0 -144.5 34.5t-91.5 112.5q-55 -66 -131 -111.5t-186 -45.5q-70 0 -121 24.5t-84 69.5t-49 104.5 t-16 130.5q0 287 141 432.5t399 145.5q68 0 140.5 -14.5t125.5 -38.5l-92 -467q-6 -29 -10 -57.5t-4 -57.5q0 -59 33 -101t102 -42q84 0 145.5 36.5t101.5 101t58.5 151.5t18.5 186q0 158 -42 265t-120 174t-191.5 96.5t-257.5 29.5q-197 0 -351 -59.5t-263 -171 t-166 -275.5t-57 -373q0 -156 41 -265t116.5 -179t184 -101.5t244.5 -31.5q98 0 174.5 13t167.5 40l34 -108q-86 -29 -181 -46.5t-200 -17.5q-344 0 -531 167t-187 529zM596 326q0 -109 38.5 -170.5t110.5 -61.5q90 0 149.5 45t113.5 123l106 498q-29 10 -59.5 13t-67.5 3 q-201 0 -296 -119.5t-95 -330.5z" />
<glyph unicode="A" horiz-adv-x="1124" d="M-88 0l692 1245h215l182 -1245h-157l-49 362h-519l-196 -362h-168zM344 489h434l-80 633h-16z" />
<glyph unicode="B" horiz-adv-x="1058" d="M31 0l264 1245h405q72 0 132.5 -14t105.5 -44t69.5 -76t24.5 -112q0 -133 -67.5 -220.5t-188.5 -116.5q74 -23 123 -81.5t49 -152.5q0 -115 -39 -196.5t-105.5 -133t-155.5 -75t-189 -23.5h-428zM203 123h258q57 0 116.5 13.5t107.5 46t78 89t30 142.5q0 96 -57.5 135 t-155.5 39h-279zM328 709h266q133 0 206.5 72.5t73.5 183.5q0 94 -55 125.5t-147 31.5h-256z" />
<glyph unicode="C" d="M80 438q0 188 49 342t139 261.5t219 166t287 58.5q111 0 199 -31t147 -90l-90 -92q-49 43 -111.5 66.5t-160.5 23.5q-143 0 -243.5 -63.5t-163 -163t-91.5 -223.5t-29 -242q0 -160 77 -254.5t245 -94.5q111 0 189.5 22.5t140.5 45.5l16 -119q-59 -27 -156.5 -49 t-222.5 -22q-211 2 -325.5 117.5t-114.5 340.5z" />
<glyph unicode="D" horiz-adv-x="1153" d="M31 0l264 1245h334q242 0 363.5 -104.5t121.5 -333.5q0 -174 -46 -322.5t-140 -256t-238.5 -168t-341.5 -60.5h-317zM203 121h166q156 0 267.5 53t183 145.5t106.5 214t35 257.5q0 174 -85 252.5t-268 78.5h-192z" />
<glyph unicode="E" horiz-adv-x="980" d="M31 0l264 1245h702l-24 -123h-555l-88 -417h534l-24 -125h-537l-98 -457h575l-26 -123h-723z" />
<glyph unicode="F" horiz-adv-x="897" d="M31 0l264 1245h686l-27 -123h-536l-88 -417h497l-26 -125h-498l-123 -580h-149z" />
<glyph unicode="G" horiz-adv-x="1167" d="M80 438q0 203 52 357.5t145.5 259t225.5 158t292 53.5q115 0 210 -30t154 -89l-88 -94q-47 41 -114.5 65.5t-172.5 24.5q-158 0 -264 -61.5t-170.5 -160t-91.5 -221t-27 -245.5q0 -168 81 -261.5t261 -93.5q78 0 136.5 11.5t103.5 25.5l80 375h-293l25 123h442l-127 -592 q-80 -25 -173 -44t-220 -19q-223 2 -345 117.5t-122 340.5z" />
<glyph unicode="H" horiz-adv-x="1196" d="M31 0l264 1245h149l-118 -557h618l119 557h149l-266 -1245h-149l121 561h-619l-119 -561h-149z" />
<glyph unicode="I" horiz-adv-x="430" d="M31 0l264 1245h149l-264 -1245h-149z" />
<glyph unicode="J" horiz-adv-x="632" d="M-72 10l39 119q23 -6 50.5 -12t62.5 -6q86 0 144.5 50t84.5 173l193 911h151l-194 -909q-20 -96 -52 -163t-77 -107.5t-107.5 -59t-144.5 -18.5q-41 0 -80 6t-70 16z" />
<glyph unicode="K" horiz-adv-x="1003" d="M31 0l264 1245h149l-118 -559h94l569 559h180l-630 -624l372 -621h-170l-335 563h-107l-119 -563h-149z" />
<glyph unicode="L" horiz-adv-x="858" d="M31 0l264 1245h149l-239 -1122h553l-27 -123h-700z" />
<glyph unicode="M" horiz-adv-x="1472" d="M31 0l264 1245h266l94 -1124h15l551 1124h268l-264 -1245h-150l240 1124h-17l-555 -1124h-213l-96 1124h-16l-238 -1124h-149z" />
<glyph unicode="N" horiz-adv-x="1243" d="M31 0l264 1245h260l303 -1124h14l240 1124h150l-267 -1245h-256l-305 1124h-16l-238 -1124h-149z" />
<glyph unicode="O" horiz-adv-x="1196" d="M80 428q0 160 41 310.5t123 267t204.5 188.5t288.5 72q209 0 316.5 -116t107.5 -333q0 -160 -41 -310.5t-123 -268t-204.5 -188t-288.5 -70.5q-211 0 -317.5 114.5t-106.5 333.5zM236 428q0 -154 72.5 -241t207.5 -87q113 0 203 56.5t153.5 153t97.5 227.5t34 282 q0 152 -73 239t-208 87q-113 0 -203 -56.5t-153.5 -152.5t-97 -227t-33.5 -281z" />
<glyph unicode="P" horiz-adv-x="1019" d="M31 0l264 1245h383q174 0 267 -73.5t93 -217.5q0 -115 -35.5 -201.5t-101 -147t-156 -91.5t-196.5 -31h-268l-103 -483h-147zM307 606h252q70 0 129.5 22.5t102.5 64.5t67.5 102.5t24.5 134.5q0 104 -60.5 148t-163.5 44h-241z" />
<glyph unicode="Q" horiz-adv-x="1196" d="M80 428q0 160 41 310.5t123 267t204.5 188.5t288.5 72q209 0 316.5 -116t107.5 -333q0 -160 -41 -310.5t-123 -268t-204.5 -188t-288.5 -70.5q-211 0 -317.5 114.5t-106.5 333.5zM236 428q0 -154 72.5 -241t207.5 -87q113 0 203 56.5t153.5 153t97.5 227.5t34 282 q0 152 -73 239t-208 87q-113 0 -203 -56.5t-153.5 -152.5t-97 -227t-33.5 -281zM631 31l123 65q12 -12 42.5 -52t66.5 -86t68 -86t44 -52q-10 -6 -26.5 -17.5t-34 -23.5t-34 -23.5t-26.5 -17.5z" />
<glyph unicode="R" horiz-adv-x="1046" d="M31 0l264 1245h395q164 0 260.5 -66.5t96.5 -207.5q0 -195 -87.5 -296.5t-246.5 -135.5l161 -539h-157l-154 524h-274l-111 -524h-147zM315 649h273q141 0 222 72t81 225q0 92 -60.5 134t-162.5 42h-250z" />
<glyph unicode="S" horiz-adv-x="960" d="M6 55l62 117q53 -25 132 -46.5t169 -21.5q70 0 130 16.5t103 48.5t67.5 76t24.5 99q0 57 -29.5 94t-64.5 60q-66 39 -135.5 68.5t-145.5 70.5q-72 39 -114.5 101.5t-42.5 140.5q0 102 38 174.5t103.5 120t154.5 70t191 22.5q100 0 183 -17.5t149 -48.5l-59 -117 q-49 23 -121 41.5t-166 18.5q-141 0 -229.5 -59.5t-88.5 -172.5q0 -59 29 -95t70 -58q59 -35 134 -67t146 -73q68 -39 109 -99t41 -144q0 -102 -39 -177t-104.5 -123t-155.5 -71.5t-191 -23.5q-104 0 -191 21.5t-159 53.5z" />
<glyph unicode="T" horiz-adv-x="913" d="M137 1122l27 123h897l-27 -123h-375l-237 -1122h-150l238 1122h-373z" />
<glyph unicode="U" horiz-adv-x="1165" d="M108 270q-1 14 0 29q0 86 23 193l160 753h149l-168 -799q-16 -78 -16 -140t22.5 -108t70.5 -71t130 -25q168 0 259 88.5t132 288.5l164 766h150l-166 -780q-29 -129 -75 -221t-114.5 -150.5t-159.5 -86t-208 -27.5t-194 32.5t-116 97t-43 160.5z" />
<glyph unicode="V" horiz-adv-x="1036" d="M166 1245h151l113 -1124h16l558 1124h161l-641 -1245h-213z" />
<glyph unicode="W" horiz-adv-x="1701" d="M182 1245h156l51 -1124h17l479 1124h235l25 -1124h16l500 1124h160l-578 -1245h-227l-27 1124h-16l-484 -1124h-229z" />
<glyph unicode="X" horiz-adv-x="1054" d="M-88 0l514 641l-227 604h159l189 -528h35l413 528h166l-479 -604l246 -641h-156l-213 567h-35l-442 -567h-170z" />
<glyph unicode="Y" horiz-adv-x="999" d="M150 1245h159l211 -569h17l448 569h166l-573 -721l-115 -524h-148l119 526q-33 80 -69.5 173.5t-73.5 189.5t-74 188t-67 168z" />
<glyph unicode="Z" horiz-adv-x="1005" d="M-53 0l18 100l899 1022h-641l25 123h829l-20 -100l-897 -1022h684l-27 -123h-870z" />
<glyph unicode="[" horiz-adv-x="634" d="M-68 -362l363 1697h418l-25 -121h-272l-312 -1456h273l-25 -120h-420z" />
<glyph unicode="\" horiz-adv-x="677" d="M201 1292h137l186 -1368h-137z" />
<glyph unicode="]" horiz-adv-x="634" d="M-84 -362l27 120h272l309 1456h-272l27 121h417l-360 -1697h-420z" />
<glyph unicode="^" horiz-adv-x="839" d="M96 584l371 661h223l90 -661h-129l-80 565h-16l-315 -565h-144z" />
<glyph unicode="_" horiz-adv-x="794" d="M-63 -195l22 113h629l-25 -113h-626z" />
<glyph unicode="`" horiz-adv-x="980" d="M449 1298h159l152 -299h-137z" />
<glyph unicode="a" horiz-adv-x="940" d="M53 254q0 141 34 258t93.5 200t143.5 129t182 46q137 0 233 -64l21 43h117l-142 -639l-30 -227h-113l-2 100q-59 -59 -131 -89.5t-160 -30.5q-123 0 -184.5 75.5t-61.5 198.5zM205 279q0 -88 34.5 -138.5t112.5 -50.5q57 0 115.5 27.5t118.5 81.5l112 526q-41 29 -84 42 t-79 13q-84 0 -145.5 -41t-102.5 -110.5t-61.5 -160.5t-20.5 -189z" />
<glyph unicode="b" horiz-adv-x="933" d="M20 0l275 1288l149 21l-112 -523q61 47 128.5 74t149.5 27q121 0 182.5 -77t61.5 -198q0 -127 -30.5 -241.5t-89 -200.5t-143.5 -137t-196 -51q-139 0 -239 67l-27 -49h-109zM197 152q45 -35 89 -49.5t85 -14.5q88 0 150.5 44t102.5 114.5t59 161t19 184.5 q0 86 -35.5 135t-111.5 49q-57 0 -119.5 -30.5t-130.5 -88.5z" />
<glyph unicode="c" horiz-adv-x="800" d="M55 305q0 133 36 240.5t103.5 183.5t164 117t219.5 41q76 0 142 -23.5t101 -58.5l-90 -88q-29 27 -72 42t-102 15q-80 0 -145.5 -32.5t-111.5 -92t-70.5 -141.5t-24.5 -180q0 -111 48 -173.5t163 -62.5q68 0 125 15.5t106 37.5l8 -104q-45 -23 -120.5 -42t-161.5 -19 q-164 0 -241 89t-77 236z" />
<glyph unicode="d" horiz-adv-x="933" d="M55 254q0 143 34 260t95.5 200t147.5 128t188 45q119 0 211 -58l98 459l150 21l-231 -1088l-31 -221h-127l4 94q-63 -53 -134 -83.5t-161 -30.5q-123 0 -183.5 75.5t-60.5 198.5zM207 279q0 -88 33.5 -138.5t111.5 -50.5q57 0 120 30t128 85l107 512q-41 33 -85 46 t-83 13q-84 0 -146.5 -41t-103.5 -109.5t-61.5 -158.5t-20.5 -188z" />
<glyph unicode="e" horiz-adv-x="890" d="M55 303q0 117 31 222.5t94.5 185.5t157.5 128t221 48q125 0 196.5 -56.5t71.5 -160.5q0 -98 -57 -158.5t-146 -95.5t-200 -50.5t-217 -23.5v-41q0 -104 52 -156.5t171 -52.5q84 0 156.5 22.5t130.5 47.5l16 -103q-55 -27 -149.5 -53t-198.5 -26q-70 0 -130 17t-104.5 56 t-70 100.5t-25.5 149.5zM219 446q80 6 162 17.5t148.5 34t108.5 58.5t42 91q0 63 -39 96t-100 33q-80 0 -136.5 -28.5t-94.5 -74.5t-59.5 -105.5t-31.5 -121.5z" />
<glyph unicode="f" horiz-adv-x="628" d="M-262 -418l33 117q16 -2 33.5 -4t33.5 -2q88 0 138.5 53t74.5 174l174 830h-129l25 116h129l22 107q20 98 55 162.5t84.5 103.5t110 54.5t129.5 15.5q47 0 92 -9.5t80 -21.5l-57 -113q-61 25 -131 25q-90 0 -142.5 -53.5t-76.5 -173.5l-19 -97h279l-25 -116h-278 l-178 -840q-20 -98 -55.5 -162.5t-82.5 -103.5t-106.5 -54.5t-128.5 -15.5q-20 0 -42 2t-42 6z" />
<glyph unicode="g" horiz-adv-x="931" d="M-23 -389l52 115q37 -12 91 -23.5t126 -11.5q49 0 96 12t86 42t68.5 81t46.5 129l28 131q-55 -51 -122.5 -78.5t-153.5 -27.5q-123 0 -184.5 75.5t-61.5 198.5q0 141 34 258t93.5 200t143.5 129t182 46q139 0 246 -72l24 51h111l-195 -907q-23 -111 -63.5 -184.5 t-98 -117.5t-131 -63.5t-166.5 -19.5q-76 0 -141 10t-111 27zM201 279q0 -88 34.5 -138.5t112.5 -50.5q61 0 122.5 32t125.5 91l106 504q-43 35 -87 48t-85 13q-84 0 -145 -41t-102 -109.5t-61.5 -159.5t-20.5 -189z" />
<glyph unicode="h" horiz-adv-x="931" d="M20 0l275 1288l151 21l-112 -533q68 53 142.5 82t146.5 29q123 0 172 -55.5t49 -149.5q0 -57 -17 -133l-116 -549h-148l113 526q8 35 12 65t4 56q0 123 -121 123q-117 0 -270 -141l-133 -629h-148z" />
<glyph unicode="i" horiz-adv-x="401" d="M20 0l185 866h145l-182 -866h-148zM248 1069l33 154h147l-33 -154h-147z" />
<glyph unicode="j" horiz-adv-x="401" d="M-229 -426l26 115h13q45 0 75.5 9t51 32.5t35 64.5t28.5 103l207 968h145l-198 -929q-20 -96 -44 -164t-64 -113t-101.5 -65.5t-155.5 -20.5h-18zM248 1071l33 152h147l-35 -152h-145z" />
<glyph unicode="k" horiz-adv-x="841" d="M20 0l275 1288l149 21l-165 -781h75l379 338h178l-446 -397l278 -469h-165l-240 412h-84l-88 -412h-146z" />
<glyph unicode="l" horiz-adv-x="432" d="M53 125q0 20 4 45t11 51l225 1067l151 21l-229 -1084q-12 -47 -12 -69q0 -33 16.5 -42.5t52.5 -9.5l-22 -110q-8 -2 -17 -2q-8 -2 -16 -2h-18q-145 0 -146 135z" />
<glyph unicode="m" horiz-adv-x="1404" d="M20 0l130 600l38 266h123l-4 -108q70 59 147.5 94t149.5 35q92 0 137 -37t60 -102q72 66 153.5 102.5t157.5 36.5q111 0 157 -55.5t46 -147.5q0 -57 -17 -135l-116 -549h-148l113 526q6 35 10 66t4 57q0 121 -100 121q-115 0 -258 -143q-2 -18 -5 -38t-7 -40l-115 -549 h-150l113 526q16 76 16 123q0 121 -102 121q-111 0 -252 -137l-133 -633h-148z" />
<glyph unicode="n" horiz-adv-x="931" d="M20 0l130 600l38 266h123l-4 -110q72 61 155 96t161 35q123 0 172 -55.5t49 -149.5q0 -57 -17 -133l-116 -549h-148l113 526q16 72 16 121q0 123 -121 123q-119 0 -270 -141l-133 -629h-148z" />
<glyph unicode="o" horiz-adv-x="948" d="M53 299q0 119 32 225.5t94.5 187.5t154.5 128t213 47q160 0 238.5 -84t78.5 -238q0 -119 -31.5 -225.5t-94 -186t-154.5 -126.5t-213 -47q-160 0 -239 82.5t-79 236.5zM201 305q0 -45 9 -84t31.5 -68.5t57.5 -46t88 -16.5q80 0 141.5 38t103.5 102.5t62.5 150.5t20.5 180 q0 45 -9.5 84t-31 67.5t-57 46t-87.5 17.5q-80 0 -142 -38t-103 -102.5t-62.5 -150.5t-21.5 -180z" />
<glyph unicode="p" horiz-adv-x="933" d="M-70 -426l228 1073l32 219h123l-2 -98q66 55 138.5 87t162.5 32q121 0 182.5 -77t61.5 -198q0 -129 -30.5 -243.5t-89 -200.5t-144.5 -136t-195 -50q-127 0 -223 59l-94 -449zM199 152q43 -35 88 -49.5t86 -14.5q88 0 150.5 44t102.5 114.5t59.5 162t19.5 183.5 q0 86 -36 135t-112 49q-59 0 -121.5 -30.5t-130.5 -88.5z" />
<glyph unicode="q" horiz-adv-x="935" d="M51 254q0 127 30 241.5t88 200.5t144 137.5t197 51.5q135 0 240 -68l26 49h109l-273 -1272l-149 -18l108 510q-57 -51 -125.5 -78.5t-150.5 -27.5q-121 0 -182.5 76.5t-61.5 197.5zM201 274q0 -86 35.5 -135t111.5 -49q121 0 252 125l109 502q-43 35 -88 48t-86 13 q-88 0 -150.5 -44t-103.5 -114.5t-60.5 -160.5t-19.5 -185z" />
<glyph unicode="r" horiz-adv-x="659" d="M25 0l120 567l39 299h127l-10 -157q150 178 320 178q59 0 102 -21l-59 -121q-18 6 -37 10.5t-43 4.5q-72 0 -144.5 -53.5t-148.5 -145.5l-121 -561h-145z" />
<glyph unicode="s" horiz-adv-x="800" d="M6 37l51 108q63 -27 121 -39t133 -12q33 0 70 5t67.5 20.5t50 44.5t19.5 76q0 35 -20.5 59.5t-59.5 42.5q-41 23 -92 42t-92 40q-70 33 -106.5 77t-36.5 101q0 84 35.5 139.5t93 87t127 45t135.5 13.5q90 0 155.5 -15.5t102.5 -31.5l-47 -109q-43 18 -102.5 30.5 t-129.5 12.5q-109 0 -166 -42t-57 -101q0 -41 24.5 -62.5t65.5 -40.5q18 -8 44 -19t52.5 -22.5t52 -22.5t42.5 -20q53 -27 90 -69.5t37 -104.5q0 -154 -102.5 -222t-274.5 -68q-82 0 -149.5 14t-133.5 43z" />
<glyph unicode="t" horiz-adv-x="692" d="M94 750l23 100l143 16l43 181l146 24l-43 -205h311l-25 -114h-311l-90 -422q-6 -31 -11.5 -64t-5.5 -63q0 -51 27 -78t100 -27q39 0 78 7.5t78 19.5l10 -105q-51 -20 -105 -30t-120 -10q-109 0 -164 51t-55 149q0 23 4 48.5t8 47.5l101 474h-142z" />
<glyph unicode="u" horiz-adv-x="933" d="M61 184q0 31 4.5 66t10.5 67l117 549h147l-113 -526q-16 -72 -16 -121q0 -123 121 -123q119 0 270 142l133 628h148l-129 -600l-39 -266h-123l4 111q-72 -61 -155 -96t-160 -35q-123 0 -171.5 55t-48.5 149z" />
<glyph unicode="v" horiz-adv-x="831" d="M102 866h150l74 -753h16l389 753h154l-475 -866h-201z" />
<glyph unicode="w" horiz-adv-x="1296" d="M111 866h145l27 -753h16l313 753h217l7 -753h16l342 753h149l-415 -866h-215l-4 754h-17l-319 -754h-215z" />
<glyph unicode="x" horiz-adv-x="819" d="M-84 0l358 449l-174 417h160l135 -358h27l283 358h163l-342 -417l174 -449h-157l-137 381h-27l-297 -381h-166z" />
<glyph unicode="y" horiz-adv-x="837" d="M-137 -416l33 109q31 -6 59 -6q66 0 108.5 26.5t67.5 55.5q14 16 31.5 42.5t36 57.5t36 62.5t31.5 58.5l-157 876h149l102 -688h17l360 688h152l-506 -923q-47 -88 -89 -157t-91 -116t-110.5 -71.5t-149.5 -24.5q-18 0 -40 2t-40 8z" />
<glyph unicode="z" horiz-adv-x="827" d="M-10 0l20 96l660 656h-502l25 114h681l-20 -96l-657 -655h522l-25 -115h-704z" />
<glyph unicode="{" horiz-adv-x="663" d="M63 432l31 141q59 8 107.5 47t64.5 123l76 349q16 80 48 133t77 83.5t104.5 43t133.5 12.5h61l-25 -121h-28q-102 0 -155.5 -40t-76.5 -144l-63 -305q-25 -117 -74 -172.5t-129 -71.5l-4 -18q53 -16 82 -49t29 -99q0 -39 -13 -90l-63 -307q-8 -35 -8 -68 q0 -63 39.5 -85.5t121.5 -22.5h29l-27 -121h-65q-109 0 -179.5 43t-70.5 155q0 41 10 89l66 319q6 25 6 51q0 100 -105 125z" />
<glyph unicode="|" horiz-adv-x="397" d="M-47 -352l362 1710h127l-364 -1710h-125z" />
<glyph unicode="}" horiz-adv-x="663" d="M-98 -350l24 121h29q100 0 153.5 36.5t75.5 143.5l66 305q12 61 30.5 103t43 70t56.5 44t73 27l4 18q-57 16 -85 50t-28 98q0 37 12 90l64 305q4 23 7 39t3 33q0 63 -39 86.5t-125 23.5h-26l26 121h64q115 0 183.5 -48t68.5 -155q0 -18 -3.5 -38.5t-7.5 -43.5l-69 -331 q-6 -29 -6 -52q0 -55 28.5 -83.5t77.5 -37.5l-31 -145q-61 -8 -109 -47t-65 -123l-71 -336q-18 -86 -50 -139t-78 -84t-104.5 -41t-132.5 -10h-59z" />
<glyph unicode="~" horiz-adv-x="868" d="M66 494q63 37 124.5 58t128.5 21q41 0 72 -11t58.5 -25.5t55 -25.5t62.5 -11q53 0 95.5 16t85.5 39l43 -94q-53 -35 -115 -58.5t-137 -23.5q-43 0 -75 11t-59.5 25.5t-55 26t-62.5 11.5q-49 0 -93 -15.5t-88 -38.5z" />
<glyph unicode="&#xa1;" horiz-adv-x="434" d="M-47 -379l215 944h129l-186 -944h-158zM176 705l35 161h162l-33 -161h-164z" />
<glyph unicode="&#xa2;" horiz-adv-x="835" d="M45 305q0 133 36 240.5t103.5 183.5t163.5 117t219 41q76 0 142.5 -23.5t101.5 -58.5l-90 -88q-29 27 -72 42t-102 15q-80 0 -145.5 -32.5t-111.5 -92t-70.5 -141.5t-24.5 -180q0 -111 48 -173.5t163 -62.5q68 0 125 15.5t106 37.5l8 -104q-45 -23 -120.5 -42t-162.5 -19 q-164 0 -240.5 89t-76.5 236zM268 -174l258 1214h107l-258 -1214h-107z" />
<glyph unicode="&#xa3;" horiz-adv-x="905" d="M-27 0l23 106q61 37 102 80t70 92.5t46 104.5t32 117l10 45h-160l25 117h160l30 149q31 141 78 230t109.5 138.5t138.5 68t160 18.5q51 0 100 -8.5t84 -22.5l-61 -113q-61 27 -140 27q-61 0 -111.5 -17.5t-90 -59.5t-70.5 -111.5t-51 -174.5l-27 -124h371l-25 -117h-370 l-11 -43q-16 -78 -36.5 -137.5t-46 -104.5t-58.5 -77.5t-76 -59.5h553l-24 -123h-734z" />
<glyph unicode="&#xa4;" horiz-adv-x="897" d="M16 227l150 129q-16 45 -16 93q0 74 24.5 138t69.5 115l-103 132l103 81l102 -133q86 45 193 45q74 0 125 -39l147 123l76 -94l-150 -125q20 -47 21 -102q0 -72 -22.5 -134.5t-63.5 -111.5l94 -123l-102 -84l-97 123q-86 -45 -188 -45q-88 0 -146 45l-145 -125zM283 471 q0 -63 26 -99t92 -36q55 0 97.5 20.5t70 53t42 74.5t14.5 87q0 61 -27 98.5t-94 37.5q-55 0 -97 -20.5t-70 -53.5t-41 -75t-13 -87z" />
<glyph unicode="&#xa5;" horiz-adv-x="1062" d="M98 369l23 102h336l16 68l-24 55h-302l21 100h242q-29 70 -57.5 142.5t-56.5 144.5t-55.5 138.5t-52.5 125.5h160l213 -559h17l448 559h164l-447 -551h236l-23 -100h-294l-46 -57l-14 -66h330l-23 -102h-327l-78 -369h-150l80 369h-336z" />
<glyph unicode="&#xa6;" horiz-adv-x="395" d="M-45 -354l137 645h125l-137 -645h-125zM182 715l137 645h125l-137 -645h-125z" />
<glyph unicode="&#xa7;" horiz-adv-x="995" d="M-72 -352l58 112q70 -29 140.5 -48t154.5 -19q156 0 238.5 57t82.5 137q0 74 -80 125q-31 20 -71.5 39t-83.5 37t-85 37.5t-75 42.5q-59 37 -93 87t-34 126q0 127 66.5 206t187.5 113q-55 37 -87 90.5t-32 124.5q0 90 37 157t100.5 110t150.5 63.5t187 20.5 q98 0 174 -16.5t142 -45.5l-54 -110q-47 23 -119.5 38t-158.5 15q-139 0 -226.5 -55.5t-87.5 -147.5q0 -41 24 -74.5t65 -56.5q29 -16 66.5 -34.5t79.5 -37t83 -39t76 -40.5q57 -33 94 -83t37 -126q0 -129 -73 -206t-200 -110q4 -4 6 -4q53 -31 91.5 -87t38.5 -128 q0 -88 -36 -152.5t-99.5 -107.5t-150.5 -63.5t-190 -20.5q-100 0 -186 21.5t-158 52.5zM227 422q0 -88 86 -137q35 -23 84 -44.5t101 -43.5q133 35 185 90t52 123q0 41 -18.5 73.5t-59.5 59.5q-41 23 -95 47t-109 49q-111 -31 -168.5 -88t-57.5 -129z" />
<glyph unicode="&#xa8;" horiz-adv-x="983" d="M377 1069l35 154h143l-33 -154h-145zM700 1069l33 154h144l-33 -154h-144z" />
<glyph unicode="&#xa9;" horiz-adv-x="1425" d="M82 483q0 182 61.5 327.5t169 247t251 155t308.5 53.5q117 0 212.5 -35t164 -99.5t105.5 -157.5t37 -210q0 -182 -61.5 -327.5t-169 -247t-251 -155.5t-309.5 -54q-117 0 -212 34.5t-162.5 99t-105.5 159t-38 210.5zM199 500q0 -197 110.5 -306.5t311.5 -109.5 q147 2 267 52t206 138t133 208t47 261q0 201 -108.5 310.5t-313.5 109.5q-145 0 -266 -51t-207 -140t-133 -210t-47 -262zM406 530q0 98 26.5 181.5t78.5 143.5t130 93t178 33q63 0 117.5 -20.5t83.5 -51.5l-84 -78q-47 49 -131 50q-63 0 -112.5 -25t-83.5 -70t-51 -105 t-17 -132q0 -82 34.5 -131t120.5 -49q53 0 97.5 13t85.5 30l10 -90q-37 -18 -98.5 -34t-133.5 -16q-129 0 -190 71t-61 187z" />
<glyph unicode="&#xab;" horiz-adv-x="886" d="M27 432l374 373l84 -80l-297 -299l172 -293l-110 -72zM350 432l395 373l82 -80l-315 -299l178 -293l-112 -72z" />
<glyph unicode="&#xad;" horiz-adv-x="690" d="M92 377l29 129h454l-28 -129h-455z" />
<glyph unicode="&#xae;" horiz-adv-x="899" d="M109 829q0 119 39.5 215.5t109.5 162t165 101t204 35.5q154 0 246 -87.5t92 -241.5q0 -121 -40 -216.5t-110 -162t-164 -101t-205 -34.5q-76 0 -138 22.5t-106 65.5t-68.5 103.5t-24.5 137.5zM199 846q0 -123 65.5 -194.5t198.5 -71.5q92 0 168 31.5t130 87t83.5 132 t29.5 166.5q0 123 -64.5 195t-199.5 72q-90 0 -165.5 -32t-130 -87t-85 -132t-30.5 -167zM332 698l96 453h164q66 0 103.5 -25.5t37.5 -74.5q0 -123 -108 -162l51 -191h-96l-45 179h-70l-39 -179h-94zM479 948h68q41 0 63.5 23.5t22.5 60.5q0 45 -58 45h-69z" />
<glyph unicode="&#xaf;" horiz-adv-x="983" d="M358 1087l27 117h512l-25 -117h-514z" />
<glyph unicode="&#xb0;" horiz-adv-x="638" d="M170 963q0 143 81 223t232 80q100 0 152.5 -59.5t52.5 -143.5q0 -141 -81.5 -219t-231.5 -80q-104 2 -154.5 59.5t-50.5 139.5zM291 981q0 -47 23.5 -77t80.5 -30q92 0 132 50.5t40 122.5q0 47 -24.5 78.5t-79.5 31.5q-45 0 -77 -15.5t-53.5 -40t-31.5 -56t-10 -64.5z " />
<glyph unicode="&#xb2;" horiz-adv-x="571" d="M94 602l12 64l252 217q82 72 110 113.5t28 82.5q0 84 -99 84q-80 0 -164 -45l-28 80q113 57 221 57q86 0 136 -37.5t50 -113.5q0 -43 -11 -76t-32.5 -63.5t-55.5 -62.5t-77 -68l-164 -142h277l-19 -90h-436z" />
<glyph unicode="&#xb3;" horiz-adv-x="571" d="M90 668l70 71q23 -20 60.5 -36.5t86.5 -16.5q63 0 109.5 32t46.5 91q0 86 -121 86h-28.5t-28.5 -2l16 84h43q25 0 53.5 7t52 20.5t40 35t16.5 52.5q0 72 -94 71q-45 0 -88 -17.5t-74 -35.5l-29 76q35 23 94.5 46t126.5 23q82 0 131.5 -35.5t49.5 -101.5q0 -74 -41 -112.5 t-93 -55.5q41 -12 67 -47t26 -80q0 -59 -23.5 -103t-62.5 -73t-90.5 -43t-108.5 -14q-76 0 -127 23.5t-80 54.5z" />
<glyph unicode="&#xb4;" horiz-adv-x="980" d="M426 999l276 299h168l-295 -299h-149z" />
<glyph unicode="&#xb5;" horiz-adv-x="935" d="M-80 -418l275 1284h145l-104 -497q-10 -41 -16.5 -80t-6.5 -68q0 -59 27.5 -90t93.5 -31t134.5 33t133.5 86l137 647h148l-135 -635l-35 -231h-133l6 92q-72 -53 -148.5 -82.5t-148.5 -29.5q-92 0 -141 36q-6 -29 -13.5 -68.5t-17.5 -101.5q-4 -14 -11.5 -56t-17.5 -89 q-10 -53 -24 -119h-148z" />
<glyph unicode="&#xb6;" horiz-adv-x="1044" d="M139 727q0 141 34 239.5t94.5 161t146.5 90t190 27.5h459l-350 -1655l-117 -12l332 1563h-156l-330 -1551l-118 -12l188 895h-113q-74 0 -124 19.5t-79.5 53.5t-43 81t-13.5 100z" />
<glyph unicode="&#xb7;" horiz-adv-x="370" d="M86 420l33 162h166l-35 -162h-164z" />
<glyph unicode="&#xb8;" horiz-adv-x="980" d="M96 -387l58 94q27 -10 55.5 -17t64.5 -7q72 0 104 25.5t32 68.5q0 39 -39 55t-133 21l55 92q256 -8 256 -152q0 -104 -64.5 -160.5t-218.5 -56.5q-53 0 -97 10.5t-73 26.5z" />
<glyph unicode="&#xb9;" horiz-adv-x="571" d="M219 1143l227 104h80l-137 -645h-115l115 533l-145 -68z" />
<glyph unicode="&#xbb;" horiz-adv-x="888" d="M15 141l315 299l-178 293l112 72l228 -371l-395 -373zM357 141l297 299l-172 293l110 72l223 -371l-374 -373z" />
<glyph unicode="&#xbd;" horiz-adv-x="1255" d="M-25 -55l1151 1355h150l-1149 -1355h-152zM219 1143l227 104h80l-137 -645h-115l115 533l-145 -68zM686 2l12 64l252 217q82 72 109.5 113.5t27.5 82.5q0 84 -98 84q-80 0 -164 -45l-28 80q113 57 221 57q86 0 136 -37.5t50 -113.5q0 -43 -11 -76t-32.5 -63.5 t-55.5 -62.5t-77 -69l-164 -141h277l-19 -90h-436z" />
<glyph unicode="&#xbf;" horiz-adv-x="784" d="M92 -162q0 72 28.5 128t72.5 105.5t97.5 95.5t102.5 95t88 104.5t53 124.5l15 74h139l-18 -88q-16 -78 -54.5 -140.5t-83.5 -113.5t-94 -95t-90 -85t-66.5 -83t-25.5 -91q0 -72 51 -109t137 -37q74 0 138.5 25.5t117.5 54.5l25 -115q-68 -35 -150 -61.5t-174 -26.5 q-137 0 -223 60.5t-86 177.5zM565 704l35 162h162l-35 -162h-162z" />
<glyph unicode="&#xc0;" horiz-adv-x="1124" d="M-88 0l692 1245h215l182 -1245h-157l-49 362h-519l-196 -362h-168zM344 489h434l-80 633h-16zM502 1677h159l152 -299h-137z" />
<glyph unicode="&#xc1;" horiz-adv-x="1124" d="M-88 0l692 1245h215l182 -1245h-157l-49 362h-519l-196 -362h-168zM344 489h434l-80 633h-16zM655 1378l276 299h168l-295 -299h-149z" />
<glyph unicode="&#xc2;" horiz-adv-x="1124" d="M-88 0l692 1245h215l182 -1245h-157l-49 362h-519l-196 -362h-168zM344 489h434l-80 633h-16zM442 1378l262 299h193l129 -299h-131l-99 218h-18l-197 -218h-139z" />
<glyph unicode="&#xc3;" horiz-adv-x="1124" d="M-88 0l692 1245h215l182 -1245h-157l-49 362h-519l-196 -362h-168zM344 489h434l-80 633h-16zM460 1550q39 27 91.5 48.5t103.5 21.5q39 0 67.5 -10t54 -21.5t50.5 -21.5t55 -10q39 0 75 13t67 32l41 -93q-41 -29 -93.5 -48t-107.5 -19q-37 0 -65.5 10t-54.5 21.5 t-50.5 21.5t-54.5 10q-39 0 -73 -14t-65 -33z" />
<glyph unicode="&#xc4;" horiz-adv-x="1124" d="M-88 0l692 1245h215l182 -1245h-157l-49 362h-519l-196 -362h-168zM344 489h434l-80 633h-16zM516 1448l35 154h143l-33 -154h-145zM839 1448l33 154h144l-33 -154h-144z" />
<glyph unicode="&#xc5;" horiz-adv-x="1124" d="M-88 0l692 1245h215l182 -1245h-157l-49 362h-519l-196 -362h-168zM344 489h434l-80 633h-16zM582 1482q0 109 60.5 165.5t175.5 56.5q74 0 110.5 -42t36.5 -98q0 -106 -59 -162.5t-172 -56.5q-76 0 -114 42t-38 95zM687 1501q0 -29 16 -45.5t51 -16.5q47 0 77 26t30 85 q0 27 -14.5 44t-49.5 17q-68 0 -89 -34.5t-21 -75.5z" />
<glyph unicode="&#xc6;" horiz-adv-x="1699" d="M-94 0l987 1245h825l-26 -123h-578l-67 -417h532l-25 -125h-528l-76 -457h545l-27 -123h-688l60 362h-482l-282 -362h-170zM457 489h403l105 633h-17z" />
<glyph unicode="&#xc7;" horiz-adv-x="1077" d="M80 438q0 188 49 342t139 261.5t219 166t287 58.5q111 0 199 -31t147 -90l-90 -92q-49 43 -111.5 66.5t-160.5 23.5q-143 0 -243.5 -63.5t-163 -163t-91.5 -223.5t-29 -242q0 -160 77 -254.5t245 -94.5q111 0 189.5 22.5t140.5 45.5l16 -119q-59 -27 -156.5 -49 t-222.5 -22q-211 2 -325.5 117.5t-114.5 340.5zM182 -387l58 94q27 -10 55.5 -17t64.5 -7q72 0 104 25.5t32 68.5q0 39 -39 55t-133 21l55 92q256 -8 256 -152q0 -104 -64.5 -160.5t-218.5 -56.5q-53 0 -97 10.5t-73 26.5z" />
<glyph unicode="&#xc8;" horiz-adv-x="980" d="M31 0l264 1245h702l-24 -123h-555l-88 -417h534l-24 -125h-537l-98 -457h575l-26 -123h-723zM459 1677h159l152 -299h-137z" />
<glyph unicode="&#xc9;" horiz-adv-x="980" d="M31 0l264 1245h702l-24 -123h-555l-88 -417h534l-24 -125h-537l-98 -457h575l-26 -123h-723zM610 1378l276 299h168l-295 -299h-149z" />
<glyph unicode="&#xca;" horiz-adv-x="980" d="M31 0l264 1245h702l-24 -123h-555l-88 -417h534l-24 -125h-537l-98 -457h575l-26 -123h-723zM387 1378l262 299h193l129 -299h-131l-99 218h-18l-197 -218h-139z" />
<glyph unicode="&#xcb;" horiz-adv-x="980" d="M31 0l264 1245h702l-24 -123h-555l-88 -417h534l-24 -125h-537l-98 -457h575l-26 -123h-723zM455 1438l35 154h143l-33 -154h-145zM778 1438l33 154h144l-33 -154h-144z" />
<glyph unicode="&#xcc;" horiz-adv-x="417" d="M51 0l264 1245h149l-264 -1245h-149zM181 1677h159l152 -299h-137z" />
<glyph unicode="&#xcd;" horiz-adv-x="417" d="M51 0l264 1245h149l-264 -1245h-149zM293 1378l276 299h168l-295 -299h-149z" />
<glyph unicode="&#xce;" horiz-adv-x="417" d="M51 0l264 1245h149l-264 -1245h-149zM102 1378l262 299h193l129 -299h-131l-99 218h-18l-197 -218h-139z" />
<glyph unicode="&#xcf;" horiz-adv-x="417" d="M51 0l264 1245h149l-264 -1245h-149zM174 1438l35 154h143l-33 -154h-145zM497 1438l33 154h144l-33 -154h-144z" />
<glyph unicode="&#xd0;" horiz-adv-x="1175" d="M51 0l264 1245h334q242 0 364 -104.5t122 -333.5q0 -174 -46.5 -322.5t-140.5 -256t-238.5 -168t-340.5 -60.5h-318zM55 573l27 123h549l-27 -123h-549zM223 121h166q156 0 267.5 53t183 145.5t106.5 214t35 257.5q0 174 -85 252.5t-267 78.5h-193z" />
<glyph unicode="&#xd1;" horiz-adv-x="1243" d="M31 0l264 1245h260l303 -1124h14l240 1124h150l-267 -1245h-256l-305 1124h-16l-238 -1124h-149zM534 1550q39 27 91.5 48.5t103.5 21.5q39 0 67.5 -10t54 -21.5t50.5 -21.5t55 -10q39 0 75 13t67 32l41 -93q-41 -29 -93.5 -48t-107.5 -19q-37 0 -65.5 10t-54.5 21.5 t-50.5 21.5t-54.5 10q-39 0 -73 -14t-65 -33z" />
<glyph unicode="&#xd2;" horiz-adv-x="1196" d="M80 428q0 160 41 310.5t123 267t204.5 188.5t288.5 72q209 0 316.5 -116t107.5 -333q0 -160 -41 -310.5t-123 -268t-204.5 -188t-288.5 -70.5q-211 0 -317.5 114.5t-106.5 333.5zM236 428q0 -154 72.5 -241t207.5 -87q113 0 203 56.5t153.5 153t97.5 227.5t34 282 q0 152 -73 239t-208 87q-113 0 -203 -56.5t-153.5 -152.5t-97 -227t-33.5 -281zM517 1677h159l152 -299h-137z" />
<glyph unicode="&#xd3;" horiz-adv-x="1196" d="M80 428q0 160 41 310.5t123 267t204.5 188.5t288.5 72q209 0 316.5 -116t107.5 -333q0 -160 -41 -310.5t-123 -268t-204.5 -188t-288.5 -70.5q-211 0 -317.5 114.5t-106.5 333.5zM236 428q0 -154 72.5 -241t207.5 -87q113 0 203 56.5t153.5 153t97.5 227.5t34 282 q0 152 -73 239t-208 87q-113 0 -203 -56.5t-153.5 -152.5t-97 -227t-33.5 -281zM750 1378l276 299h168l-295 -299h-149z" />
<glyph unicode="&#xd4;" horiz-adv-x="1196" d="M80 428q0 160 41 310.5t123 267t204.5 188.5t288.5 72q209 0 316.5 -116t107.5 -333q0 -160 -41 -310.5t-123 -268t-204.5 -188t-288.5 -70.5q-211 0 -317.5 114.5t-106.5 333.5zM236 428q0 -154 72.5 -241t207.5 -87q113 0 203 56.5t153.5 153t97.5 227.5t34 282 q0 152 -73 239t-208 87q-113 0 -203 -56.5t-153.5 -152.5t-97 -227t-33.5 -281zM508 1378l262 299h193l129 -299h-131l-99 218h-18l-197 -218h-139z" />
<glyph unicode="&#xd5;" horiz-adv-x="1196" d="M80 428q0 160 41 310.5t123 267t204.5 188.5t288.5 72q209 0 316.5 -116t107.5 -333q0 -160 -41 -310.5t-123 -268t-204.5 -188t-288.5 -70.5q-211 0 -317.5 114.5t-106.5 333.5zM236 428q0 -154 72.5 -241t207.5 -87q113 0 203 56.5t153.5 153t97.5 227.5t34 282 q0 152 -73 239t-208 87q-113 0 -203 -56.5t-153.5 -152.5t-97 -227t-33.5 -281zM520 1550q39 27 91.5 48.5t103.5 21.5q39 0 67.5 -10t54 -21.5t50.5 -21.5t55 -10q39 0 75 13t67 32l41 -93q-41 -29 -93.5 -48t-107.5 -19q-37 0 -65.5 10t-54.5 21.5t-50.5 21.5t-54.5 10 q-39 0 -73 -14t-65 -33z" />
<glyph unicode="&#xd6;" horiz-adv-x="1196" d="M80 428q0 160 41 310.5t123 267t204.5 188.5t288.5 72q209 0 316.5 -116t107.5 -333q0 -160 -41 -310.5t-123 -268t-204.5 -188t-288.5 -70.5q-211 0 -317.5 114.5t-106.5 333.5zM236 428q0 -154 72.5 -241t207.5 -87q113 0 203 56.5t153.5 153t97.5 227.5t34 282 q0 152 -73 239t-208 87q-113 0 -203 -56.5t-153.5 -152.5t-97 -227t-33.5 -281zM578 1438l35 154h143l-33 -154h-145zM901 1438l33 154h144l-33 -154h-144z" />
<glyph unicode="&#xd7;" d="M92 211l350 299l-221 297l105 82l219 -293l346 297l78 -96l-351 -299l222 -297l-103 -84l-221 295l-348 -299z" />
<glyph unicode="&#xd8;" horiz-adv-x="1196" d="M-23 18l152 162q-49 100 -49 248q0 160 41 310.5t123 267t204.5 188.5t288.5 72q201 0 307 -113l138 147l82 -69l-156 -164q53 -102 53 -250q0 -160 -41 -310.5t-123 -268t-204.5 -188t-288.5 -70.5q-203 0 -309 112l-136 -145zM233 428q0 -72 15 -123l694 739 q-68 102 -219 103q-113 0 -203 -56.5t-153.5 -153.5t-98.5 -228t-35 -281zM297 201q69 -103 219 -103q113 0 204 56.5t154.5 154t98.5 228.5t35 282q0 61 -17 121z" />
<glyph unicode="&#xd9;" horiz-adv-x="1165" d="M108.5 270.5q-4.5 96.5 22.5 221.5l160 753h149l-168 -799q-16 -78 -16 -140t22.5 -108t70.5 -71t130 -25q168 0 259 88.5t132 288.5l164 766h150l-166 -780q-29 -129 -75 -221t-114.5 -150.5t-159.5 -86t-208 -27.5t-194 32.5t-115.5 97t-43 161zM543 1677h159l152 -299 h-137z" />
<glyph unicode="&#xda;" horiz-adv-x="1165" d="M108.5 270.5q-4.5 96.5 22.5 221.5l160 753h149l-168 -799q-16 -78 -16 -140t22.5 -108t70.5 -71t130 -25q168 0 259 88.5t132 288.5l164 766h150l-166 -780q-29 -129 -75 -221t-114.5 -150.5t-159.5 -86t-208 -27.5t-194 32.5t-115.5 97t-43 161zM662 1378l276 299h168 l-295 -299h-149z" />
<glyph unicode="&#xdb;" horiz-adv-x="1165" d="M108.5 270.5q-4.5 96.5 22.5 221.5l160 753h149l-168 -799q-16 -78 -16 -140t22.5 -108t70.5 -71t130 -25q168 0 259 88.5t132 288.5l164 766h150l-166 -780q-29 -129 -75 -221t-114.5 -150.5t-159.5 -86t-208 -27.5t-194 32.5t-115.5 97t-43 161zM471 1378l262 299h193 l129 -299h-131l-99 218h-18l-197 -218h-139z" />
<glyph unicode="&#xdc;" horiz-adv-x="1165" d="M108.5 270.5q-4.5 96.5 22.5 221.5l160 753h149l-168 -799q-16 -78 -16 -140t22.5 -108t70.5 -71t130 -25q168 0 259 88.5t132 288.5l164 766h150l-166 -780q-29 -129 -75 -221t-114.5 -150.5t-159.5 -86t-208 -27.5t-194 32.5t-115.5 97t-43 161zM545 1438l35 154h143 l-33 -154h-145zM868 1438l33 154h144l-33 -154h-144z" />
<glyph unicode="&#xdd;" horiz-adv-x="1058" d="M183 1245h159l211 -569h17l448 569h166l-573 -721l-115 -524h-148l119 526q-33 80 -69.5 173.5t-73.5 189.5t-74 188t-67 168zM631 1378l276 299h168l-295 -299h-149z" />
<glyph unicode="&#xde;" horiz-adv-x="1021" d="M31 0l264 1245h149l-53 -246h256q166 0 252 -73.5t86 -208.5q0 -111 -36 -198t-98.5 -147.5t-149.5 -91t-189 -30.5h-279l-53 -250h-149zM258 373h258q68 0 124 21.5t98 61.5t65.5 98t23.5 134q0 104 -55 146.5t-149 42.5h-258z" />
<glyph unicode="&#xdf;" horiz-adv-x="997" d="M20 0l177 831q53 248 178 357.5t315 109.5q55 0 105.5 -14t88.5 -44t60.5 -72t22.5 -97q0 -59 -16.5 -101t-48.5 -78t-80 -68.5t-111 -73.5q-53 -33 -97.5 -69t-44.5 -77q-2 -33 18.5 -52.5t57.5 -41.5l111 -59q59 -33 98 -82.5t37 -114.5q-4 -137 -94 -205.5t-256 -68.5 q-70 0 -132.5 15t-113.5 40l49 108q39 -16 92 -32.5t125 -16.5q80 0 134.5 35t54.5 100q0 45 -22.5 71t-72.5 50q-23 12 -52.5 28.5t-51.5 27.5q-59 33 -92 73.5t-31 93.5q0 41 11.5 75t37 65.5t67.5 64.5t103 70q82 51 126 93t44 112t-43 99.5t-110 29.5q-127 0 -208 -96.5 t-114 -254.5l-176 -831h-146z" />
<glyph unicode="&#xe0;" horiz-adv-x="940" d="M53 254q0 141 34 258t93.5 200t143.5 129t182 46q137 0 233 -64l21 43h117l-142 -639l-30 -227h-113l-2 100q-59 -59 -131 -89.5t-160 -30.5q-123 0 -184.5 75.5t-61.5 198.5zM205 279q0 -88 34.5 -138.5t112.5 -50.5q57 0 115.5 27.5t118.5 81.5l112 526q-41 29 -84 42 t-79 13q-84 0 -145.5 -41t-102.5 -110.5t-61.5 -160.5t-20.5 -189zM390 1298h159l152 -299h-137z" />
<glyph unicode="&#xe1;" horiz-adv-x="940" d="M53 254q0 141 34 258t93.5 200t143.5 129t182 46q137 0 233 -64l21 43h117l-142 -639l-30 -227h-113l-2 100q-59 -59 -131 -89.5t-160 -30.5q-123 0 -184.5 75.5t-61.5 198.5zM205 279q0 -88 34.5 -138.5t112.5 -50.5q57 0 115.5 27.5t118.5 81.5l112 526q-41 29 -84 42 t-79 13q-84 0 -145.5 -41t-102.5 -110.5t-61.5 -160.5t-20.5 -189zM489 999l276 299h168l-295 -299h-149z" />
<glyph unicode="&#xe2;" horiz-adv-x="940" d="M53 254q0 141 34 258t93.5 200t143.5 129t182 46q137 0 233 -64l21 43h117l-142 -639l-30 -227h-113l-2 100q-59 -59 -131 -89.5t-160 -30.5q-123 0 -184.5 75.5t-61.5 198.5zM205 279q0 -88 34.5 -138.5t112.5 -50.5q57 0 115.5 27.5t118.5 81.5l112 526q-41 29 -84 42 t-79 13q-84 0 -145.5 -41t-102.5 -110.5t-61.5 -160.5t-20.5 -189zM303 999l262 299h193l129 -299h-131l-99 218h-18l-197 -218h-139z" />
<glyph unicode="&#xe3;" horiz-adv-x="940" d="M53 254q0 141 34 258t93.5 200t143.5 129t182 46q137 0 233 -64l21 43h117l-142 -639l-30 -227h-113l-2 100q-59 -59 -131 -89.5t-160 -30.5q-123 0 -184.5 75.5t-61.5 198.5zM205 279q0 -88 34.5 -138.5t112.5 -50.5q57 0 115.5 27.5t118.5 81.5l112 526q-41 29 -84 42 t-79 13q-84 0 -145.5 -41t-102.5 -110.5t-61.5 -160.5t-20.5 -189zM305 1171q39 27 91.5 48.5t103.5 21.5q39 0 67.5 -10t54 -21.5t50.5 -21.5t55 -10q39 0 75 13t67 32l41 -93q-41 -29 -93.5 -48t-107.5 -19q-37 0 -65.5 10t-54.5 21.5t-50.5 21.5t-54.5 10q-39 0 -73 -14 t-65 -33z" />
<glyph unicode="&#xe4;" horiz-adv-x="940" d="M53 254q0 141 34 258t93.5 200t143.5 129t182 46q137 0 233 -64l21 43h117l-142 -639l-30 -227h-113l-2 100q-59 -59 -131 -89.5t-160 -30.5q-123 0 -184.5 75.5t-61.5 198.5zM205 279q0 -88 34.5 -138.5t112.5 -50.5q57 0 115.5 27.5t118.5 81.5l112 526q-41 29 -84 42 t-79 13q-84 0 -145.5 -41t-102.5 -110.5t-61.5 -160.5t-20.5 -189zM377 1069l35 154h143l-33 -154h-145zM700 1069l33 154h144l-33 -154h-144z" />
<glyph unicode="&#xe5;" horiz-adv-x="940" d="M53 254q0 141 34 258t93.5 200t143.5 129t182 46q137 0 233 -64l21 43h117l-142 -639l-30 -227h-113l-2 100q-59 -59 -131 -89.5t-160 -30.5q-123 0 -184.5 75.5t-61.5 198.5zM205 279q0 -88 34.5 -138.5t112.5 -50.5q57 0 115.5 27.5t118.5 81.5l112 526q-41 29 -84 42 t-79 13q-84 0 -145.5 -41t-102.5 -110.5t-61.5 -160.5t-20.5 -189zM438 1124q0 109 60.5 165.5t175.5 56.5q74 0 110.5 -42t36.5 -98q0 -106 -59 -162.5t-172 -56.5q-76 0 -114 42t-38 95zM543 1143q0 -29 16 -45.5t51 -16.5q47 0 77 26t30 85q0 27 -14.5 44t-49.5 17 q-68 0 -89 -34.5t-21 -75.5z" />
<glyph unicode="&#xe6;" horiz-adv-x="1411" d="M16 190q0 88 30 148.5t84 97.5t130 52.5t168 15.5q51 0 101.5 -3t78.5 -5q8 35 16.5 76.5t8.5 80.5q0 66 -38 92.5t-128 26.5q-70 0 -142.5 -18.5t-127.5 -44.5l-17 102q72 33 158 54.5t182 21.5t156.5 -33t79.5 -98q59 59 142 95t181 36q125 0 197 -52.5t72 -150.5 q0 -92 -52.5 -151.5t-135.5 -93t-183 -47t-199 -13.5h-45q-4 -16 -4 -38v-36q0 -106 52.5 -158.5t168.5 -52.5q88 0 163 21.5t124 44.5l16 -101q-55 -29 -148 -54t-200 -25q-98 0 -172 33.5t-112 111.5q-31 -25 -68 -50.5t-83 -47t-100 -34.5t-120 -13q-121 0 -177.5 59 t-56.5 151zM172 217q0 -127 135 -127q70 0 144.5 39t134.5 92q-2 18 -3 35.5t-1 40.5t1 45.5t3 46.5q-29 2 -80 5t-105 3q-68 0 -111.5 -13t-69 -37.5t-37 -57.5t-11.5 -72zM745 481h46q70 0 143.5 8.5t131.5 29t96 56t38 89.5q0 57 -39 84.5t-100 27.5q-74 0 -128 -23.5 t-91 -63.5t-60.5 -94t-36.5 -114z" />
<glyph unicode="&#xe7;" horiz-adv-x="806" d="M55 305q0 133 36 240.5t103.5 183.5t164 117t219.5 41q76 0 142 -23.5t101 -58.5l-90 -88q-29 27 -72 42t-102 15q-80 0 -145.5 -32.5t-111.5 -92t-70.5 -141.5t-24.5 -180q0 -111 48 -173.5t163 -62.5q68 0 125 15.5t106 37.5l8 -104q-45 -23 -120.5 -42t-161.5 -19 q-164 0 -241 89t-77 236zM69 -387l58 94q27 -10 55.5 -17t64.5 -7q72 0 104 25.5t32 68.5q0 39 -39 55t-133 21l55 92q256 -8 256 -152q0 -104 -64.5 -160.5t-218.5 -56.5q-53 0 -97 10.5t-73 26.5z" />
<glyph unicode="&#xe8;" horiz-adv-x="890" d="M55 303q0 117 31 222.5t94.5 185.5t157.5 128t221 48q125 0 196.5 -56.5t71.5 -160.5q0 -98 -57 -158.5t-146 -95.5t-200 -50.5t-217 -23.5v-41q0 -104 52 -156.5t171 -52.5q84 0 156.5 22.5t130.5 47.5l16 -103q-55 -27 -149.5 -53t-198.5 -26q-70 0 -130 17t-104.5 56 t-70 100.5t-25.5 149.5zM219 446q80 6 162 17.5t148.5 34t108.5 58.5t42 91q0 63 -39 96t-100 33q-80 0 -136.5 -28.5t-94.5 -74.5t-59.5 -105.5t-31.5 -121.5zM381 1298h159l152 -299h-137z" />
<glyph unicode="&#xe9;" horiz-adv-x="890" d="M55 303q0 117 31 222.5t94.5 185.5t157.5 128t221 48q125 0 196.5 -56.5t71.5 -160.5q0 -98 -57 -158.5t-146 -95.5t-200 -50.5t-217 -23.5v-41q0 -104 52 -156.5t171 -52.5q84 0 156.5 22.5t130.5 47.5l16 -103q-55 -27 -149.5 -53t-198.5 -26q-70 0 -130 17t-104.5 56 t-70 100.5t-25.5 149.5zM219 446q80 6 162 17.5t148.5 34t108.5 58.5t42 91q0 63 -39 96t-100 33q-80 0 -136.5 -28.5t-94.5 -74.5t-59.5 -105.5t-31.5 -121.5zM465 999l276 299h168l-295 -299h-149z" />
<glyph unicode="&#xea;" horiz-adv-x="890" d="M55 303q0 117 31 222.5t94.5 185.5t157.5 128t221 48q125 0 196.5 -56.5t71.5 -160.5q0 -98 -57 -158.5t-146 -95.5t-200 -50.5t-217 -23.5v-41q0 -104 52 -156.5t171 -52.5q84 0 156.5 22.5t130.5 47.5l16 -103q-55 -27 -149.5 -53t-198.5 -26q-70 0 -130 17t-104.5 56 t-70 100.5t-25.5 149.5zM219 446q80 6 162 17.5t148.5 34t108.5 58.5t42 91q0 63 -39 96t-100 33q-80 0 -136.5 -28.5t-94.5 -74.5t-59.5 -105.5t-31.5 -121.5zM287 999l262 299h193l129 -299h-131l-99 218h-18l-197 -218h-139z" />
<glyph unicode="&#xeb;" horiz-adv-x="890" d="M55 303q0 117 31 222.5t94.5 185.5t157.5 128t221 48q125 0 196.5 -56.5t71.5 -160.5q0 -98 -57 -158.5t-146 -95.5t-200 -50.5t-217 -23.5v-41q0 -104 52 -156.5t171 -52.5q84 0 156.5 22.5t130.5 47.5l16 -103q-55 -27 -149.5 -53t-198.5 -26q-70 0 -130 17t-104.5 56 t-70 100.5t-25.5 149.5zM219 446q80 6 162 17.5t148.5 34t108.5 58.5t42 91q0 63 -39 96t-100 33q-80 0 -136.5 -28.5t-94.5 -74.5t-59.5 -105.5t-31.5 -121.5zM348 1069l35 154h143l-33 -154h-145zM671 1069l33 154h144l-33 -154h-144z" />
<glyph unicode="&#xec;" horiz-adv-x="401" d="M20 0l185 866h145l-182 -866h-148zM133 1298h150l116 -299h-133z" />
<glyph unicode="&#xed;" horiz-adv-x="401" d="M20 0l185 866h145l-182 -866h-148zM207 999l237 299h164l-256 -299h-145z" />
<glyph unicode="&#xee;" horiz-adv-x="401" d="M20 0l185 866h145l-182 -866h-148zM47 1004l225 299h191l98 -299h-127l-69 217h-19l-166 -217h-133z" />
<glyph unicode="&#xef;" horiz-adv-x="401" d="M20 0l185 866h145l-182 -866h-148zM109 1071l32 152h135l-32 -152h-135zM389 1071l33 152h133l-33 -152h-133z" />
<glyph unicode="&#xf0;" horiz-adv-x="946" d="M55 297q0 127 33 234.5t94.5 186.5t148.5 123t193 44q74 0 123 -29t86 -70q-6 100 -36.5 171t-90.5 122l-268 -125l-27 82l211 99q-41 23 -92 40t-111 33l41 103q184 -37 297 -113l242 115l27 -82l-195 -92q80 -80 113 -183.5t33 -224.5q0 -166 -26 -305t-85 -238.5 t-158.5 -155t-249.5 -55.5q-158 0 -230.5 87.5t-72.5 232.5zM207 315q0 -98 39 -161.5t135 -63.5q72 0 133 30t107.5 95.5t75 169.5t36.5 252q-39 59 -89 98t-128 39q-68 0 -124 -37t-97 -99.5t-64.5 -145t-23.5 -177.5z" />
<glyph unicode="&#xf1;" horiz-adv-x="931" d="M20 0l130 600l38 266h123l-4 -110q72 61 155 96t161 35q123 0 172 -55.5t49 -149.5q0 -57 -17 -133l-116 -549h-148l113 526q16 72 16 121q0 123 -121 123q-119 0 -270 -141l-133 -629h-148zM303 1171q39 27 91.5 48.5t103.5 21.5q39 0 67.5 -10t54 -21.5t50.5 -21.5 t55 -10q39 0 75 13t67 32l41 -93q-41 -29 -93.5 -48t-107.5 -19q-37 0 -65.5 10t-54.5 21.5t-50.5 21.5t-54.5 10q-39 0 -73 -14t-65 -33z" />
<glyph unicode="&#xf2;" horiz-adv-x="948" d="M53 299q0 119 32 225.5t94.5 187.5t154.5 128t213 47q160 0 238.5 -84t78.5 -238q0 -119 -31.5 -225.5t-94 -186t-154.5 -126.5t-213 -47q-160 0 -239 82.5t-79 236.5zM201 305q0 -45 9 -84t31.5 -68.5t57.5 -46t88 -16.5q80 0 141.5 38t103.5 102.5t62.5 150.5t20.5 180 q0 45 -9.5 84t-31 67.5t-57 46t-87.5 17.5q-80 0 -142 -38t-103 -102.5t-62.5 -150.5t-21.5 -180zM367 1298h159l152 -299h-137z" />
<glyph unicode="&#xf3;" horiz-adv-x="948" d="M53 299q0 119 32 225.5t94.5 187.5t154.5 128t213 47q160 0 238.5 -84t78.5 -238q0 -119 -31.5 -225.5t-94 -186t-154.5 -126.5t-213 -47q-160 0 -239 82.5t-79 236.5zM201 305q0 -45 9 -84t31.5 -68.5t57.5 -46t88 -16.5q80 0 141.5 38t103.5 102.5t62.5 150.5t20.5 180 q0 45 -9.5 84t-31 67.5t-57 46t-87.5 17.5q-80 0 -142 -38t-103 -102.5t-62.5 -150.5t-21.5 -180zM498 999l276 299h168l-295 -299h-149z" />
<glyph unicode="&#xf4;" horiz-adv-x="948" d="M53 299q0 119 32 225.5t94.5 187.5t154.5 128t213 47q160 0 238.5 -84t78.5 -238q0 -119 -31.5 -225.5t-94 -186t-154.5 -126.5t-213 -47q-160 0 -239 82.5t-79 236.5zM201 305q0 -45 9 -84t31.5 -68.5t57.5 -46t88 -16.5q80 0 141.5 38t103.5 102.5t62.5 150.5t20.5 180 q0 45 -9.5 84t-31 67.5t-57 46t-87.5 17.5q-80 0 -142 -38t-103 -102.5t-62.5 -150.5t-21.5 -180zM293 999l262 299h193l129 -299h-131l-99 218h-18l-197 -218h-139z" />
<glyph unicode="&#xf5;" horiz-adv-x="948" d="M53 299q0 119 32 225.5t94.5 187.5t154.5 128t213 47q160 0 238.5 -84t78.5 -238q0 -119 -31.5 -225.5t-94 -186t-154.5 -126.5t-213 -47q-160 0 -239 82.5t-79 236.5zM201 305q0 -45 9 -84t31.5 -68.5t57.5 -46t88 -16.5q80 0 141.5 38t103.5 102.5t62.5 150.5t20.5 180 q0 45 -9.5 84t-31 67.5t-57 46t-87.5 17.5q-80 0 -142 -38t-103 -102.5t-62.5 -150.5t-21.5 -180zM309 1171q39 27 91.5 48.5t103.5 21.5q39 0 67.5 -10t54 -21.5t50.5 -21.5t55 -10q39 0 75 13t67 32l41 -93q-41 -29 -93.5 -48t-107.5 -19q-37 0 -65.5 10t-54.5 21.5 t-50.5 21.5t-54.5 10q-39 0 -73 -14t-65 -33z" />
<glyph unicode="&#xf6;" horiz-adv-x="948" d="M53 299q0 119 32 225.5t94.5 187.5t154.5 128t213 47q160 0 238.5 -84t78.5 -238q0 -119 -31.5 -225.5t-94 -186t-154.5 -126.5t-213 -47q-160 0 -239 82.5t-79 236.5zM201 305q0 -45 9 -84t31.5 -68.5t57.5 -46t88 -16.5q80 0 141.5 38t103.5 102.5t62.5 150.5t20.5 180 q0 45 -9.5 84t-31 67.5t-57 46t-87.5 17.5q-80 0 -142 -38t-103 -102.5t-62.5 -150.5t-21.5 -180zM365 1069l35 154h143l-33 -154h-145zM688 1069l33 154h144l-33 -154h-144z" />
<glyph unicode="&#xf7;" d="M150 440l24 125h737l-26 -125h-735zM377 164l35 160h161l-34 -160h-162zM487 682l35 162h162l-35 -162h-162z" />
<glyph unicode="&#xf8;" horiz-adv-x="952" d="M-31 29l111 108q-14 33 -19.5 71t-5.5 85q0 135 34 244.5t98.5 187.5t160.5 120t223 42q133 0 205 -68l101 99l79 -78l-112 -113q12 -33 17 -72t5 -84q0 -121 -27.5 -229.5t-88 -189t-158.5 -128t-240 -47.5q-129 0 -202 70l-103 -100zM203 290q0 -16 4 -32l473 463 q-18 29 -51 43t-86 14q-76 0 -138.5 -32.5t-107.5 -93t-69.5 -143.5t-24.5 -183v-36zM246 147q39 -59 131 -59q86 0 150.5 37t106.5 98.5t63.5 143.5t21.5 174v34.5t-4 32.5z" />
<glyph unicode="&#xf9;" horiz-adv-x="933" d="M61 184q0 31 4.5 66t10.5 67l117 549h147l-113 -526q-16 -72 -16 -121q0 -123 121 -123q119 0 270 142l133 628h148l-129 -600l-39 -266h-123l4 111q-72 -61 -155 -96t-160 -35q-123 0 -171.5 55t-48.5 149zM340 1298h159l152 -299h-137z" />
<glyph unicode="&#xfa;" horiz-adv-x="933" d="M61 184q0 31 4.5 66t10.5 67l117 549h147l-113 -526q-16 -72 -16 -121q0 -123 121 -123q119 0 270 142l133 628h148l-129 -600l-39 -266h-123l4 111q-72 -61 -155 -96t-160 -35q-123 0 -171.5 55t-48.5 149zM510 999l276 299h168l-295 -299h-149z" />
<glyph unicode="&#xfb;" horiz-adv-x="933" d="M61 184q0 31 4.5 66t10.5 67l117 549h147l-113 -526q-16 -72 -16 -121q0 -123 121 -123q119 0 270 142l133 628h148l-129 -600l-39 -266h-123l4 111q-72 -61 -155 -96t-160 -35q-123 0 -171.5 55t-48.5 149zM280 999l262 299h193l129 -299h-131l-99 218h-18l-197 -218 h-139z" />
<glyph unicode="&#xfc;" horiz-adv-x="933" d="M61 184q0 31 4.5 66t10.5 67l117 549h147l-113 -526q-16 -72 -16 -121q0 -123 121 -123q119 0 270 142l133 628h148l-129 -600l-39 -266h-123l4 111q-72 -61 -155 -96t-160 -35q-123 0 -171.5 55t-48.5 149zM352 1069l35 154h143l-33 -154h-145zM675 1069l33 154h144 l-33 -154h-144z" />
<glyph unicode="&#xfd;" horiz-adv-x="837" d="M-137 -416l33 109q31 -6 59 -6q66 0 108.5 26.5t67.5 55.5q14 16 31.5 42.5t36 57.5t36 62.5t31.5 58.5l-157 876h149l102 -688h17l360 688h152l-506 -923q-47 -88 -89 -157t-91 -116t-110.5 -71.5t-149.5 -24.5q-18 0 -40 2t-40 8zM483 999l276 299h168l-295 -299h-149z " />
<glyph unicode="&#xfe;" horiz-adv-x="931" d="M-70 -422l176 825l148 7l-172 -813zM20 0l275 1288l149 21l-112 -523q61 47 128.5 74t149.5 27q121 0 182.5 -77t61.5 -198q0 -127 -30.5 -241.5t-89 -200.5t-143.5 -137t-196 -51q-139 0 -239 67l-27 -49h-109zM197 152q45 -35 89 -49.5t85 -14.5q88 0 150.5 44 t102.5 114.5t59 161t19 184.5q0 86 -35.5 135t-111.5 49q-57 0 -119.5 -30.5t-130.5 -88.5z" />
<glyph unicode="&#xff;" horiz-adv-x="837" d="M-137 -416l33 109q31 -6 59 -6q66 0 108.5 26.5t67.5 55.5q14 16 31.5 42.5t36 57.5t36 62.5t31.5 58.5l-157 876h149l102 -688h17l360 688h152l-506 -923q-47 -88 -89 -157t-91 -116t-110.5 -71.5t-149.5 -24.5q-18 0 -40 2t-40 8zM311 1069l35 154h143l-33 -154h-145z M634 1069l33 154h144l-33 -154h-144z" />
<glyph unicode="&#x152;" horiz-adv-x="1804" d="M80 428q0 160 41 310.5t123 267t204.5 188.5t288.5 72q260 0 355 -185l34 164h697l-27 -123h-553l-88 -417h535l-27 -125h-535l-98 -457h574l-27 -123h-715l27 131q-74 -72 -169 -111.5t-216 -39.5q-211 0 -317.5 114.5t-106.5 333.5zM236 428q0 -154 72.5 -241 t207.5 -87q113 0 203 56.5t153.5 153t97.5 227.5t34 282q0 152 -73 239t-208 87q-113 0 -203 -56.5t-153.5 -152.5t-97 -227t-33.5 -281z" />
<glyph unicode="&#x153;" horiz-adv-x="1525" d="M53 299q0 119 32 225.5t94.5 187.5t154.5 128t213 47q115 0 185.5 -44t101.5 -126q61 78 150 124t210 46q125 0 197.5 -56.5t72.5 -160.5q0 -98 -57 -158.5t-147.5 -95.5t-201 -50.5t-216.5 -23.5v-41q0 -104 53 -156.5t172 -52.5q84 0 156.5 22.5t130.5 47.5l16 -103 q-55 -27 -150.5 -53t-199.5 -26t-182 38.5t-113 131.5q-61 -78 -149.5 -124t-204.5 -46q-160 0 -239 82.5t-79 236.5zM201 305q0 -45 9 -84t31.5 -68.5t57.5 -46t88 -16.5q80 0 141.5 38t103.5 102.5t62.5 150.5t20.5 180q0 45 -9.5 84t-31 67.5t-57.5 46t-87 17.5 q-80 0 -142 -38t-103 -102.5t-62.5 -150.5t-21.5 -180zM854 446q80 6 163 17.5t149.5 33t108.5 58.5t42 92q0 63 -40 96t-101 33q-80 0 -136.5 -28.5t-94.5 -75.5t-59.5 -105.5t-31.5 -120.5z" />
<glyph unicode="&#x178;" horiz-adv-x="1085" d="M195 1245h159l211 -569h17l448 569h166l-573 -721l-115 -524h-148l119 526q-33 80 -69.5 173.5t-73.5 189.5t-74 188t-67 168zM479 1438l35 154h143l-33 -154h-145zM802 1438l33 154h144l-33 -154h-144z" />
<glyph unicode="&#x2c6;" horiz-adv-x="980" d="M303 999l262 299h193l129 -299h-131l-99 218h-18l-197 -218h-139z" />
<glyph unicode="&#x2dc;" horiz-adv-x="980" d="M313 1171q39 27 91.5 48.5t103.5 21.5q39 0 67.5 -10t54 -21.5t50.5 -21.5t55 -10q39 0 75 13t67 32l41 -93q-41 -29 -93.5 -48t-107.5 -19q-37 0 -65.5 10t-54.5 21.5t-50.5 21.5t-54.5 10q-39 0 -73 -14t-65 -33z" />
<glyph unicode="&#x2000;" horiz-adv-x="852" />
<glyph unicode="&#x2001;" horiz-adv-x="1704" />
<glyph unicode="&#x2002;" horiz-adv-x="852" />
<glyph unicode="&#x2003;" horiz-adv-x="1704" />
<glyph unicode="&#x2004;" horiz-adv-x="568" />
<glyph unicode="&#x2005;" horiz-adv-x="426" />
<glyph unicode="&#x2006;" horiz-adv-x="284" />
<glyph unicode="&#x2007;" horiz-adv-x="284" />
<glyph unicode="&#x2008;" horiz-adv-x="213" />
<glyph unicode="&#x2009;" horiz-adv-x="340" />
<glyph unicode="&#x200a;" horiz-adv-x="94" />
<glyph unicode="&#x2010;" horiz-adv-x="690" d="M92 377l29 129h454l-28 -129h-455z" />
<glyph unicode="&#x2011;" horiz-adv-x="690" d="M92 377l29 129h454l-28 -129h-455z" />
<glyph unicode="&#x2012;" horiz-adv-x="690" d="M92 377l29 129h454l-28 -129h-455z" />
<glyph unicode="&#x2013;" horiz-adv-x="1003" d="M96 387l25 121h766l-27 -121h-764z" />
<glyph unicode="&#x2014;" horiz-adv-x="1388" d="M59 387l25 121h1223l-25 -121h-1223z" />
<glyph unicode="&#x2018;" horiz-adv-x="393" d="M179 874q31 141 87 240.5t136 193.5l86 -59q-66 -92 -106 -178t-62 -197h-141z" />
<glyph unicode="&#x2019;" horiz-adv-x="393" d="M141 922q66 92 106 178t62 197h141q-31 -141 -87 -240.5t-136 -193.5z" />
<glyph unicode="&#x201a;" horiz-adv-x="370" d="M-121 -215q66 92 106 178t62 197h141q-31 -141 -87 -240.5t-136 -193.5z" />
<glyph unicode="&#x201c;" horiz-adv-x="684" d="M179 874q31 141 87 240.5t136 193.5l86 -59q-66 -92 -106 -178t-62 -197h-141zM469 874q31 141 87 240.5t136 193.5l86 -59q-66 -92 -106 -178t-62 -197h-141z" />
<glyph unicode="&#x201d;" horiz-adv-x="684" d="M141 922q66 92 106 178t62 197h141q-31 -141 -87 -240.5t-136 -193.5zM432 922q66 92 106 178t62 197h141q-31 -141 -87 -240.5t-136 -193.5z" />
<glyph unicode="&#x201e;" horiz-adv-x="665" d="M-111 -215q66 92 106 178t62 197h141q-31 -141 -87 -240.5t-136 -193.5zM180 -215q66 92 106 178t62 197h141q-31 -141 -87 -240.5t-136 -193.5z" />
<glyph unicode="&#x2022;" horiz-adv-x="563" d="M76 457q0 41 17.5 83t48 75.5t73.5 54t94 20.5q72 0 113 -45t41 -113q0 -43 -18.5 -84.5t-51.5 -73.5t-75 -52.5t-91 -20.5q-68 0 -109.5 42t-41.5 114z" />
<glyph unicode="&#x2026;" horiz-adv-x="1091" d="M-4 0l35 162h166l-35 -162h-166zM356 0l37 162h164l-35 -162h-166zM719 0l35 162h166l-35 -162h-166z" />
<glyph unicode="&#x202f;" horiz-adv-x="340" />
<glyph unicode="&#x2039;" horiz-adv-x="548" d="M27 432l379 373l83 -80l-296 -297l165 -291l-112 -76z" />
<glyph unicode="&#x203a;" horiz-adv-x="548" d="M23 141l296 297l-165 291l112 76l219 -371l-379 -373z" />
<glyph unicode="&#x205f;" horiz-adv-x="426" />
<glyph unicode="&#x20ac;" horiz-adv-x="1144" d="M45 455l57 102h127q6 66 19 127h-152l60 102h118q72 233 240 356.5t410 123.5q84 0 162.5 -20.5t134.5 -59.5l-70 -119q-41 35 -100.5 55.5t-145.5 20.5q-94 0 -168.5 -28t-132 -76t-99.5 -113.5t-69 -139.5h561l-57 -102h-532q-8 -33 -13.5 -63.5t-9.5 -63.5h481 l-55 -102h-430v-11q0 -160 73.5 -249t221.5 -89q82 0 148.5 12.5t121.5 31.5l-26 -134q-61 -16 -131 -26t-150 -10q-211 2 -312.5 121.5t-101.5 330.5v23h-180z" />
<glyph unicode="&#x2122;" horiz-adv-x="1376" d="M145 1149l21 96h504l-21 -96h-192l-117 -547h-121l117 547h-191zM616 602l136 643h192l31 -323l8 -181h18l86 181l164 323h199l-137 -643h-113l84 393l35 150h-19l-155 -311l-107 -209h-133l-20 211l-29 309h-16l-29 -150l-84 -393h-111z" />
<glyph unicode="&#x25fc;" horiz-adv-x="870" d="M0 0v870h870v-870h-870z" />
</font>
</defs>
</svg>
